<svg xmlns="http://www.w3.org/2000/svg" xmlns:xlink="http://www.w3.org/1999/xlink" width="108.002" height="491.3" viewBox="0 0 108.002 491.3"><defs><clipPath id="a"><path d="M3.4,6.958a.58.58,0,0,1-.423-.183l-2.82-3A.58.58,0,0,1,1,2.979L3.394,5.525,8.269.189a.58.58,0,1,1,.856.782l-5.3,5.8a.579.579,0,0,1-.424.189Z" transform="translate(0)" fill="#fff" stroke="#fff" stroke-miterlimit="10" stroke-width="1"/></clipPath></defs><g transform="translate(-133.998 -213.7)"><g transform="translate(0 -100)" opacity="0.291"><g transform="translate(0 37)"><g transform="translate(141 365)" fill="none" stroke="#fff" stroke-width="1"><rect width="94" height="81" stroke="none"/><rect x="0.5" y="0.5" width="93" height="80" fill="none"/></g><g transform="translate(-2847 -747)"><g transform="translate(2981 1023.7)" fill="none"><path d="M33.517,0H74.483A33.4,33.4,0,0,1,108,33.279v47H0v-47A33.4,33.4,0,0,1,33.517,0Z" stroke="none"/><path d="M 33.51724243164063 1 C 29.12612152099609 1 24.86693572998047 1.853660583496094 20.85802459716797 3.537239074707031 C 16.98580932617188 5.163414001464844 13.50812530517578 7.491531372070313 10.52155303955078 10.45688629150391 C 7.535469055175781 13.42176818847656 5.191238403320313 16.8739013671875 3.553955078125 20.71738433837891 C 1.859268188476563 24.69559860229492 0.9999923706054688 28.92202758789063 0.9999923706054688 33.27925491333008 L 0.9999923706054688 79.27899932861328 L 107 79.27899932861328 L 107 33.27925491333008 C 107 28.92202758789063 106.1407241821289 24.69559860229492 104.4460372924805 20.71737289428711 C 102.8087692260742 16.8739013671875 100.4645233154297 13.42176818847656 97.47843933105469 10.45688629150391 C 94.49186706542969 7.491531372070313 91.01418304443359 5.163414001464844 87.14198303222656 3.537239074707031 C 83.133056640625 1.853660583496094 78.87388610839844 1 74.48275756835938 1 L 33.51724243164063 1 M 33.51724243164063 0 L 74.48275756835938 0 C 92.99382781982422 0 108 14.89962768554688 108 33.27925491333008 L 108 80.27899932861328 L -7.62939453125e-06 80.27899932861328 L -7.62939453125e-06 33.27925491333008 C -7.62939453125e-06 14.89962768554688 15.00617980957031 0 33.51724243164063 0 Z" stroke="none" fill="#fff"/></g><g transform="translate(2988 1030.7)" fill="none" stroke="#fff" stroke-width="1"><rect width="94.309" height="55" rx="27.5" stroke="none"/><rect x="0.5" y="0.5" width="93.309" height="54" rx="27" fill="none"/></g></g><line x2="93" transform="translate(141.5 421.2)" fill="none" stroke="#fff" stroke-width="1"/><path d="M0,55.454V30.247L13.684,9.909H20.03V0h7.561V9.909h5.565L47.893,30.247V55.454Z" transform="translate(164.5 365.7)" fill="none" stroke="#fff" stroke-width="1"/><g transform="translate(134 356)" fill="none" stroke="#fff" stroke-width="1"><rect width="108" height="10" stroke="none"/><rect x="0.5" y="0.5" width="107" height="9" fill="none"/></g></g><g transform="translate(0 -1)" opacity="0"><g transform="translate(179 338.991)" fill="none"><path d="M8.5,0A8.5,8.5,0,1,1,0,8.5,8.5,8.5,0,0,1,8.5,0Z" stroke="none"/><path d="M 8.50439453125 1.000003814697266 C 4.366464614868164 1.000003814697266 1.000003814697266 4.366464614868164 1.000003814697266 8.50439453125 C 1.000003814697266 12.64232444763184 4.366464614868164 16.00878524780273 8.50439453125 16.00878524780273 C 12.64232444763184 16.00878524780273 16.00878524780273 12.64232444763184 16.00878524780273 8.50439453125 C 16.00878524780273 4.366464614868164 12.64232444763184 1.000003814697266 8.50439453125 1.000003814697266 M 8.50439453125 3.814697265625e-06 C 13.20124435424805 3.814697265625e-06 17.00878524780273 3.807544708251953 17.00878524780273 8.50439453125 C 17.00878524780273 13.20124435424805 13.20124435424805 17.00878524780273 8.50439453125 17.00878524780273 C 3.807544708251953 17.00878524780273 3.814697265625e-06 13.20124435424805 3.814697265625e-06 8.50439453125 C 3.814697265625e-06 3.807544708251953 3.807544708251953 3.814697265625e-06 8.50439453125 3.814697265625e-06 Z" stroke="none" fill="#fff"/></g><g transform="translate(183 344.017)"><g fill="#fff" stroke-miterlimit="10"><path d="M 3.401103734970093 6.458040237426758 L 3.399852514266968 6.458040237426758 C 3.377742528915405 6.458040237426758 3.35644268989563 6.448870182037354 3.341402530670166 6.43287992477417 L 0.5218626260757446 3.430120229721069 C 0.5028926134109497 3.410010099411011 0.4995926022529602 3.388310194015503 0.5000426173210144 3.373510122299194 C 0.5004926323890686 3.358320236206055 0.5052626132965088 3.33624005317688 0.5253825783729553 3.317320108413696 C 0.5441526174545288 3.299710035324097 0.5654526352882385 3.295930147171021 0.5799326300621033 3.295930147171021 C 0.5956225991249084 3.295930147171021 0.6183525919914246 3.300210237503052 0.6374825835227966 3.320610046386719 L 3.029632568359375 5.867010116577148 L 3.399142503738403 6.260350227355957 L 3.763172626495361 5.861940383911133 L 8.63851261138916 0.5262201428413391 C 8.658302307128906 0.5045701265335083 8.681732177734375 0.5000001192092896 8.697872161865234 0.5000001192092896 C 8.718552589416504 0.5000001192092896 8.736902236938477 0.5071701407432556 8.752422332763672 0.5213201642036438 C 8.771812438964844 0.5390401482582092 8.776772499084473 0.5607801675796509 8.777442932128906 0.5758201479911804 C 8.778112411499023 0.5909601449966431 8.775073051452637 0.613210141658783 8.756752967834473 0.6332601308822632 L 3.458662509918213 6.431740283966064 C 3.443617582321167 6.448306560516357 3.422551393508911 6.45767068862915 3.401103734970093 6.458040237426758 Z" stroke="none"/><path d="M 3.403912544250488 6.958040237426758 L 3.399852514266968 6.958040237426758 C 3.239812612533569 6.958040237426758 3.086732625961304 6.891940116882324 2.977142572402954 6.775390148162842 L 0.1573626101016998 3.772380113601685 C -0.06239739432930946 3.539290189743042 -0.05022739246487617 3.172240257263184 0.1828726083040237 2.953060150146484 C 0.2949060797691345 2.847978353500366 0.4376455843448639 2.795929670333862 0.5799316167831421 2.795929670333862 C 0.7344265580177307 2.795929670333862 0.8883962631225586 2.857235431671143 1.002192616462708 2.978580236434937 L 3.394052505493164 5.524670124053955 L 8.269392967224121 0.1889501512050629 C 8.384122848510742 0.06348529458045959 8.540780067443848 1.87988277389195e-07 8.697870254516602 1.87988277389195e-07 C 8.83770751953125 1.87988277389195e-07 8.977875709533691 0.05025682225823402 9.089292526245117 0.1518401503562927 C 9.325292587280273 0.3675401508808136 9.341522216796875 0.7345801591873169 9.125823020935059 0.9705801606178284 L 3.82778263092041 6.769010066986084 C 3.719352722167969 6.888460159301758 3.565112590789795 6.95688009262085 3.403912544250488 6.958040237426758 Z" stroke="none" fill="#fff"/></g></g></g></g><g transform="translate(-2847 -701)"><g transform="translate(2981 1103)" fill="#2f334a" stroke="#fff" stroke-width="1"><path d="M0,0H108a0,0,0,0,1,0,0V249a54,54,0,0,1-54,54h0A54,54,0,0,1,0,249V0A0,0,0,0,1,0,0Z" stroke="none"/><path d="M.8.5H107.2a.3.3,0,0,1,.3.3V249A53.5,53.5,0,0,1,54,302.5h0A53.5,53.5,0,0,1,.5,249V.8A.3.3,0,0,1,.8.5Z" fill="none"/></g><g transform="translate(3029 1210)" fill="none" stroke="#fff" stroke-width="1"><circle cx="6" cy="6" r="6" stroke="none"/><circle cx="6" cy="6" r="5.5" fill="none"/></g><path d="M0,0H78a0,0,0,0,1,0,0V234a39,39,0,0,1-39,39h0A39,39,0,0,1,0,234V0A0,0,0,0,1,0,0Z" transform="translate(2996 1111.5)" fill="none" stroke="#fff" stroke-width="1"/><path d="M4282.689,1268.014s-14.765-1.355-14.765,11.884" transform="translate(-1286.427 -156.478)" fill="none" stroke="#fff" stroke-width="1"/><path d="M4267.984,1268s14.657-1.421,14.657,11.819" transform="translate(-1194.142 -156.47)" fill="none" stroke="#fff" stroke-width="1"/></g></g></svg>